<svg height="453pt" viewBox="-36 0 453 453.5" width="453pt" xmlns="http://www.w3.org/2000/svg"><path d="m271.28125 125.300781h38.96875c12.074219 0 22.351562 8.792969 24.21875 20.71875l45.78125 258.449219c0 27.082031-21.949219 49.03125-49.03125 49.03125h-281.9375c-27.082031 0-49.03125-21.949219-49.03125-49.03125l45.78125-258.449219c1.867188-11.925781 12.144531-20.71875 24.21875-20.71875zm8.96875 179.949219c0-49.707031-40.292969-90-90-90s-90 40.292969-90 90 40.292969 90 90 90c49.707031.003906 90.003906-40.292969 90-90zm0 0" fill="#e48e66"/><path d="m280.25 305.25c0 49.707031-40.292969 90-90 90s-90-40.292969-90-90 40.292969-90 90-90 90 40.292969 90 90zm0 0" fill="#af593c"/><path d="m178.359375 343.550781c-1.855469 0-3.636719-.734375-4.949219-2.050781l-33.921875-33.921875c-2.730469-2.730469-2.730469-7.164063 0-9.898437 2.734375-2.734376 7.167969-2.734376 9.902344 0l29.082031 29.082031 54.863282-52.398438c2.796874-2.671875 7.226562-2.570312 9.898437.226563 2.667969 2.796875 2.566406 7.226562-.230469 9.898437l-59.808594 57.121094c-1.300781 1.246094-3.035156 1.941406-4.835937 1.941406zm0 0" fill="#e48e66"/><path d="m271.28125 185.78125c-3.867188 0-7-3.136719-7-7v-90.75c0-40.886719-33.144531-74.03125-74.03125-74.03125s-74.03125 33.144531-74.03125 74.03125v90.75c0 3.863281-3.132812 7-7 7-3.863281 0-7-3.136719-7-7v-90.75c0-48.617188 39.414062-88.03125 88.03125-88.03125s88.03125 39.414062 88.03125 88.03125v90.75c0 3.863281-3.136719 7-7 7zm0 0" fill="#f8ec7d"/></svg>